<svg xmlns="http://www.w3.org/2000/svg" xmlns:xlink="http://www.w3.org/1999/xlink" xml:space="preserve" width="219.278mm" height="36.742mm" style="shape-rendering:geometricPrecision; text-rendering:geometricPrecision; image-rendering:optimizeQuality; fill-rule:evenodd; clip-rule:evenodd" viewBox="0 0 219.278 36.742"> <defs> <style type="text/css"> .fil1 {fill:#FEFEFE} .fil0 {fill:#DD2425;fill-rule:nonzero} .fil2 {fill:#FEFEFE;fill-rule:nonzero} </style> </defs> <g id="Warstwa_x0020_1"> <metadata id="CorelCorpID_0Corel-Layer"></metadata> <g id="_243595776"> <path id="_243596928" class="fil0" d="M181.08 7.6957l-11.4512 0c-0.5994,0 -1.1049,0.098 -1.5085,0.2942 -0.4074,0.1922 -0.732,0.4752 -0.9733,0.8449 -0.2413,0.3693 -0.4188,0.8223 -0.5278,1.3501l-2.3085 10.8627c-0.0452,0.2039 -0.0678,0.4075 -0.0678,0.611 0,0.3584 0.0752,0.6791 0.2262,0.9582 0.1509,0.2829 0.3736,0.5055 0.6713,0.6674 0.2981,0.1662 0.6713,0.2491 1.1165,0.253l11.5419 0 0.8145 -3.8474 -7.9209 0c-0.2713,0 -0.4752,-0.0526 -0.611,-0.1546 -0.1355,-0.1058 -0.2036,-0.2638 -0.2036,-0.479 0,-0.0568 0.0039,-0.1129 0.0152,-0.1736 0.0074,-0.0564 0.0187,-0.1206 0.0304,-0.1884l0.3164 -1.4936 8.6452 0 0.7468 -3.4851 -8.6452 0 0.2491 -1.1769c0.0677,-0.3394 0.1997,-0.5884 0.3958,-0.7542 0.1965,-0.1623 0.4643,-0.2417 0.8036,-0.2417l7.8303 0 0.8146 -3.847zm-33.697 15.8415l10.9534 0c0.7881,0 1.4555,-0.0755 1.9988,-0.2301 0.5468,-0.1548 0.9959,-0.3922 1.3543,-0.7094 0.3542,-0.3203 0.6449,-0.7239 0.8636,-1.2181 0.2187,-0.4939 0.3997,-1.0788 0.5355,-1.7576 0.0378,-0.1848 0.0717,-0.381 0.102,-0.5923 0.0339,-0.211 0.0564,-0.4223 0.0755,-0.6258 0.0187,-0.2039 0.0261,-0.3849 0.0261,-0.5472 0,-0.6071 -0.1016,-1.1313 -0.3129,-1.5653 -0.2113,-0.4335 -0.5281,-0.8032 -0.9582,-1.1013 -0.4261,-0.3016 -0.9694,-0.5507 -1.6256,-0.7507l-4.5938 -1.4256c-0.1055,-0.0339 -0.2226,-0.0642 -0.3546,-0.0981 -0.1323,-0.0338 -0.2603,-0.0755 -0.3849,-0.1245 -0.128,-0.0526 -0.23,-0.1207 -0.309,-0.2074 -0.0832,-0.0868 -0.1245,-0.2001 -0.1284,-0.3394 0.0039,-0.151 0.049,-0.2678 0.1358,-0.3546 0.0907,-0.0829 0.2,-0.1432 0.332,-0.1809 0.1319,-0.0378 0.2639,-0.0607 0.3997,-0.0681 0.1358,-0.0074 0.2564,-0.0113 0.3545,-0.0074l8.0568 0 0.8371 -3.9377 -10.4553 0c-0.7316,0 -1.3578,0.0751 -1.8824,0.23 -0.5239,0.1545 -0.9578,0.3845 -1.3123,0.6904 -0.351,0.309 -0.6375,0.6974 -0.8562,1.1617 -0.2187,0.4635 -0.3923,1.0068 -0.5204,1.6291 -0.0381,0.1774 -0.0719,0.3697 -0.0984,0.5771 -0.0261,0.2113 -0.0452,0.4188 -0.0603,0.6262 -0.0152,0.2036 -0.0226,0.3923 -0.0226,0.562 0,0.5581 0.0755,1.0636 0.23,1.5088 0.1549,0.4488 0.4039,0.8336 0.7394,1.154 0.3355,0.3206 0.7769,0.5736 1.3162,0.7545l5.2956 1.7198c0.1623,0.053 0.3094,0.1059 0.4413,0.1623 0.1323,0.0568 0.2378,0.1245 0.3168,0.2036 0.0833,0.0829 0.1245,0.1848 0.1245,0.3129 -0.0035,0.17 -0.0638,0.302 -0.177,0.3887 -0.1133,0.0907 -0.2491,0.1507 -0.4075,0.181 -0.1545,0.0304 -0.2981,0.0452 -0.4336,0.0416l-8.781 0 -0.8145 3.9378zm-8.7581 -3.9378c-0.4903,0.0036 -0.9052,-0.0568 -1.2407,-0.1774 -0.3359,-0.1207 -0.5884,-0.3129 -0.762,-0.5807 -0.1736,-0.2642 -0.2604,-0.6149 -0.2604,-1.0523 0,-0.1471 0.0113,-0.3055 0.0304,-0.4717 0.0226,-0.1697 0.049,-0.3432 0.0829,-0.5242l1.9463 -9.0974 -5.1146 0 -2.037 9.5049c-0.0299,0.1319 -0.0603,0.2942 -0.0867,0.4829 -0.0265,0.1884 -0.0487,0.3845 -0.0678,0.5881 -0.0151,0.2035 -0.0264,0.3884 -0.0264,0.5584 0.0039,0.8411 0.1697,1.5688 0.4977,2.1876 0.332,0.6149 0.8076,1.1201 1.426,1.5198 0.6184,0.3997 1.3652,0.6978 2.2405,0.8904 0.8713,0.1961 1.8517,0.2903 2.9418,0.2903 0.9959,0.0039 1.9011,-0.049 2.7157,-0.1584 0.8149,-0.1058 1.5465,-0.2981 2.1953,-0.5732 0.6449,-0.2717 1.2181,-0.6566 1.7159,-1.1469 0.4942,-0.4904 0.9204,-1.1162 1.2749,-1.8743 0.3546,-0.762 0.6488,-1.6824 0.8788,-2.7647l2.037 -9.5049 -5.1146 0 -1.9463 9.0974c-0.1432,0.6752 -0.3581,1.2185 -0.6523,1.6334 -0.2907,0.4109 -0.6565,0.7126 -1.1017,0.8974 -0.4449,0.1888 -0.9691,0.2791 -1.5727,0.2755zm-21.0238 -4.2093c0.151,-0.7317 0.3359,-1.3543 0.5546,-1.8556 0.2226,-0.5055 0.4978,-0.913 0.8297,-1.2185 0.332,-0.3055 0.7391,-0.5242 1.222,-0.6639 0.4826,-0.1359 1.0637,-0.2036 1.7389,-0.1997 0.9091,-0.0039 1.603,0.1771 2.0821,0.5468 0.4787,0.3697 0.7204,0.9504 0.7239,1.7388 0,0.1771 -0.0074,0.381 -0.0226,0.6149 -0.0152,0.2336 -0.0413,0.4788 -0.0755,0.7391 -0.03,0.2565 -0.0751,0.5055 -0.1281,0.7507 -0.1545,0.7317 -0.3432,1.3501 -0.5619,1.8556 -0.2226,0.5056 -0.4981,0.9091 -0.8298,1.2182 -0.3284,0.3055 -0.7355,0.5242 -1.2185,0.6639 -0.479,0.1358 -1.0597,0.2039 -1.7349,0.2 -0.9088,0.0039 -1.6069,-0.1735 -2.0934,-0.5355 -0.4865,-0.3662 -0.7317,-0.9391 -0.7355,-1.7275 0,-0.1771 0.0112,-0.381 0.0303,-0.6188 0.0187,-0.2339 0.0452,-0.4826 0.0829,-0.743 0.0377,-0.2564 0.0829,-0.5129 0.1358,-0.7655zm4.8204 -7.8754c-1.0524,-0.0039 -2.0105,0.0261 -2.8667,0.0903 -0.8597,0.0642 -1.6295,0.1887 -2.3082,0.3697 -0.6826,0.181 -1.2862,0.4452 -1.8105,0.792 -0.5281,0.3471 -0.9881,0.8033 -1.3804,1.3656 -0.3923,0.562 -0.7281,1.2559 -1.0072,2.0821 -0.279,0.8294 -0.509,1.8105 -0.6978,2.9492 -0.0677,0.411 -0.1206,0.7733 -0.1619,1.094 -0.0381,0.3168 -0.0681,0.6184 -0.0833,0.9052 -0.0186,0.2868 -0.0261,0.5846 -0.0261,0.8975 -0.0038,1.3465 0.26,2.4327 0.7956,3.2667 0.5358,0.8336 1.3656,1.4407 2.4895,1.8253 1.1278,0.381 2.5725,0.5697 4.3413,0.5658 1.0562,0.0039 2.0105,-0.0264 2.8667,-0.0906 0.86,-0.0639 1.6291,-0.1884 2.3082,-0.3694 0.6826,-0.1813 1.2862,-0.4452 1.8143,-0.792 0.5243,-0.3471 0.9843,-0.8036 1.3766,-1.3656 0.3923,-0.562 0.7277,-1.2598 1.0071,-2.086 0.2791,-0.8258 0.513,-1.8065 0.6978,-2.9453 0.0678,-0.4113 0.1207,-0.7733 0.1546,-1.0866 0.0377,-0.3168 0.0603,-0.6145 0.0755,-0.8978 0.0151,-0.2826 0.019,-0.5768 0.019,-0.8897 0.0035,-1.3543 -0.2568,-2.4483 -0.7885,-3.2854 -0.5319,-0.8336 -1.3578,-1.4446 -2.4821,-1.8295 -1.1201,-0.381 -2.5647,-0.5694 -4.3335,-0.5655zm-10.1837 0.181l-5.1149 0 -1.1991 5.6123 -5.7485 0 1.1995 -5.6123 -5.1146 0 -3.3719 15.8415 5.1146 0 1.3353 -6.2915 5.7481 0 -1.3352 6.2915 5.1145 0 3.3722 -15.8415zm-31.6604 7.6944c0.151,-0.7317 0.3355,-1.3543 0.5546,-1.8556 0.2223,-0.5055 0.4978,-0.913 0.8297,-1.2185 0.332,-0.3055 0.7391,-0.5242 1.2221,-0.6639 0.4826,-0.1359 1.0636,-0.2036 1.7385,-0.1997 0.9091,-0.0039 1.603,0.1771 2.0821,0.5468 0.479,0.3697 0.7207,0.9504 0.7242,1.7388 0,0.1771 -0.0074,0.381 -0.0226,0.6149 -0.0151,0.2336 -0.0416,0.4788 -0.0755,0.7391 -0.03,0.2565 -0.0755,0.5055 -0.128,0.7507 -0.1549,0.7317 -0.3433,1.3501 -0.5624,1.8556 -0.2222,0.5056 -0.4977,0.9091 -0.8297,1.2182 -0.3281,0.3055 -0.7352,0.5242 -1.2181,0.6639 -0.4791,0.1358 -1.0598,0.2039 -1.735,0.2 -0.9091,0.0039 -1.6069,-0.1735 -2.0934,-0.5355 -0.4865,-0.3662 -0.7316,-0.9391 -0.7355,-1.7275 0,-0.1771 0.0113,-0.381 0.0303,-0.6188 0.0187,-0.2339 0.0452,-0.4826 0.0829,-0.743 0.0378,-0.2564 0.0829,-0.5129 0.1358,-0.7655zm4.8204 -7.8754c-1.0523,-0.0039 -2.0105,0.0261 -2.8667,0.0903 -0.86,0.0642 -1.6295,0.1887 -2.3082,0.3697 -0.6826,0.181 -1.2862,0.4452 -1.8105,0.792 -0.5281,0.3471 -0.9881,0.8033 -1.3807,1.3656 -0.392,0.562 -0.7278,1.2559 -1.0069,2.0821 -0.279,0.8294 -0.5094,1.8105 -0.6977,2.9492 -0.0678,0.411 -0.1207,0.7733 -0.1623,1.094 -0.0378,0.3168 -0.0678,0.6184 -0.0829,0.9052 -0.0191,0.2868 -0.0265,0.5846 -0.0265,0.8975 -0.0035,1.3465 0.2604,2.4327 0.7959,3.2667 0.5355,0.8336 1.3652,1.4407 2.4895,1.8253 1.1275,0.381 2.5721,0.5697 4.3413,0.5658 1.0559,0.0039 2.0101,-0.0264 2.8663,-0.0906 0.8601,-0.0639 1.6295,-0.1884 2.3086,-0.3694 0.6826,-0.1813 1.2862,-0.4452 1.814,-0.792 0.5246,-0.3471 0.9846,-0.8036 1.3769,-1.3656 0.3923,-0.562 0.7278,-1.2598 1.0068,-2.086 0.2794,-0.8258 0.5133,-1.8065 0.6978,-2.9453 0.0681,-0.4113 0.121,-0.7733 0.1549,-1.0866 0.0377,-0.3168 0.0603,-0.6145 0.0755,-0.8978 0.0148,-0.2826 0.0187,-0.5768 0.0187,-0.8897 0.0039,-1.3543 -0.2565,-2.4483 -0.7881,-3.2854 -0.532,-0.8336 -1.3579,-1.4446 -2.4822,-1.8295 -1.12,-0.381 -2.5647,-0.5694 -4.3335,-0.5655zm-18.082 16.0225l2.5347 -11.9038 5.6575 0 0.8375 -3.9377 -16.4299 0 -0.8375 3.9377 5.6575 0 -2.5343 11.9038 5.1145 0zm-21.499 -8.1471c0.1507,-0.7317 0.3355,-1.3543 0.5543,-1.8556 0.2226,-0.5055 0.4977,-0.913 0.83,-1.2185 0.3317,-0.3055 0.7391,-0.5242 1.2217,-0.6639 0.483,-0.1359 1.0636,-0.2036 1.7389,-0.1997 0.9091,-0.0039 1.603,0.1771 2.082,0.5468 0.4791,0.3697 0.7204,0.9504 0.7243,1.7388 0,0.1771 -0.0078,0.381 -0.0226,0.6149 -0.0151,0.2336 -0.0416,0.4788 -0.0755,0.7391 -0.03,0.2565 -0.0755,0.5055 -0.1284,0.7507 -0.1545,0.7317 -0.3432,1.3501 -0.562,1.8556 -0.2226,0.5056 -0.4977,0.9091 -0.8297,1.2182 -0.3281,0.3055 -0.7355,0.5242 -1.2181,0.6639 -0.4791,0.1358 -1.0601,0.2039 -1.7353,0.2 -0.9088,0.0039 -1.6066,-0.1735 -2.0931,-0.5355 -0.4865,-0.3662 -0.7316,-0.9391 -0.7355,-1.7275 0,-0.1771 0.0113,-0.381 0.03,-0.6188 0.019,-0.2339 0.0451,-0.4826 0.0832,-0.743 0.0374,-0.2564 0.0829,-0.5129 0.1358,-0.7655zm4.82 -7.8754c-1.0523,-0.0039 -2.0101,0.0261 -2.8663,0.0903 -0.86,0.0642 -1.6295,0.1887 -2.3082,0.3697 -0.683,0.181 -1.2862,0.4452 -1.8105,0.792 -0.5281,0.3471 -0.9884,0.8033 -1.3807,1.3656 -0.3923,0.562 -0.7278,1.2559 -1.0069,2.0821 -0.279,0.8294 -0.5094,1.8105 -0.6978,2.9492 -0.068,0.411 -0.1206,0.7733 -0.1622,1.094 -0.0378,0.3168 -0.0678,0.6184 -0.0829,0.9052 -0.0191,0.2868 -0.0265,0.5846 -0.0265,0.8975 -0.0039,1.3465 0.2604,2.4327 0.7959,3.2667 0.5355,0.8336 1.3652,1.4407 2.4892,1.8253 1.1278,0.381 2.5724,0.5697 4.3416,0.5658 1.0559,0.0039 2.0101,-0.0264 2.8663,-0.0906 0.8601,-0.0639 1.6295,-0.1884 2.3083,-0.3694 0.6829,-0.1813 1.2862,-0.4452 1.8143,-0.792 0.5242,-0.3471 0.9842,-0.8036 1.3765,-1.3656 0.3923,-0.562 0.7282,-1.2598 1.0072,-2.086 0.2791,-0.8258 0.513,-1.8065 0.6978,-2.9453 0.0681,-0.4113 0.1207,-0.7733 0.1545,-1.0866 0.0381,-0.3168 0.0607,-0.6145 0.0755,-0.8978 0.0152,-0.2826 0.0191,-0.5768 0.0191,-0.8897 0.0035,-1.3543 -0.2565,-2.4483 -0.7885,-3.2854 -0.5316,-0.8336 -1.3578,-1.4446 -2.4818,-1.8295 -1.1204,-0.381 -2.5647,-0.5694 -4.3339,-0.5655zm-17.018 6.4269c0.1129,-0.2113 0.2036,-0.3584 0.2791,-0.4449 0.0716,-0.0832 0.128,-0.1245 0.1732,-0.121 0.0455,0.0039 0.0794,0.0265 0.102,0.072 0.0225,0.0452 0.0338,0.0942 0.0338,0.1545 0,0.0452 -0.0035,0.0942 -0.0148,0.1471 -0.0078,0.0529 -0.019,0.102 -0.0303,0.1471l-2.2402 9.6408 5.1594 0 2.8289 -13.2391c0.0226,-0.1132 0.0417,-0.23 0.0529,-0.3471 0.0113,-0.1168 0.0152,-0.23 0.0152,-0.332 0.0035,-0.2448 -0.0416,-0.4939 -0.1397,-0.7391 -0.0942,-0.2451 -0.2716,-0.4716 -0.5242,-0.6787 -0.2565,-0.2039 -0.6149,-0.3697 -1.0827,-0.4942 -0.4674,-0.1246 -1.071,-0.1888 -1.8066,-0.1923 -0.3393,-0.0078 -0.7129,0.0113 -1.1239,0.0564 -0.411,0.0452 -0.8372,0.1471 -1.2711,0.3129 -0.4374,0.1662 -0.86,0.4262 -1.2671,0.7846 -0.4114,0.3584 -0.7811,0.8488 -1.1131,1.4711l-4.0054 7.6944c-0.0377,0.0794 -0.0907,0.1775 -0.1584,0.2865 -0.0677,0.1132 -0.1432,0.2113 -0.2265,0.2981 -0.0829,0.0907 -0.1658,0.1358 -0.2487,0.1397 -0.0829,-0.0039 -0.1436,-0.0452 -0.1887,-0.1284 -0.0413,-0.079 -0.0716,-0.1771 -0.0907,-0.2868 -0.0187,-0.1129 -0.03,-0.2149 -0.0374,-0.3091l-0.8375 -7.6944c-0.0755,-0.6188 -0.2374,-1.1049 -0.4939,-1.4598 -0.2529,-0.3584 -0.5623,-0.6184 -0.9204,-0.7881 -0.3584,-0.1661 -0.7355,-0.2716 -1.1239,-0.3168 -0.3923,-0.0455 -0.7585,-0.0681 -1.1053,-0.0603 -0.1697,-0.0039 -0.4035,0.0035 -0.7052,0.0226 -0.2981,0.0187 -0.63,0.0716 -0.992,0.1545 -0.3584,0.0868 -0.7168,0.2261 -1.0714,0.4226 -0.3506,0.1958 -0.6635,0.4713 -0.9352,0.8259 -0.2755,0.3506 -0.4713,0.8032 -0.5958,1.3578l-2.8289 13.2391 5.1597 0 1.9007 -9.6408c0.0078,-0.0564 0.023,-0.1245 0.0456,-0.2074 0.0264,-0.079 0.0603,-0.151 0.1054,-0.2152 0.0417,-0.0603 0.0981,-0.0942 0.1662,-0.0981 0.0564,0.0039 0.0942,0.0642 0.1129,0.1736 0.0229,0.1094 0.0377,0.2413 0.0455,0.3923l0.8371 7.6493c0.0226,0.2903 0.0716,0.562 0.1397,0.8184 0.0678,0.2565 0.1923,0.483 0.3659,0.6788 0.1696,0.1961 0.4261,0.3471 0.762,0.4603 0.3355,0.1094 0.7807,0.1658 1.3352,0.1697 0.5542,-0.0039 1.0259,-0.0603 1.4069,-0.1697 0.381,-0.1132 0.7013,-0.2642 0.9578,-0.4603 0.2565,-0.1958 0.4752,-0.4223 0.6526,-0.6788 0.1771,-0.2564 0.3433,-0.5281 0.4904,-0.8184l4.0509 -7.6493zm-23.4427 -13.9418l185.714 0 -10.1762 30.1043 -185.714 0 10.1763 -30.1043z"></path> <path id="_243596832" class="fil1" d="M181.08 7.6957l-11.4512 0c-0.5994,0 -1.1049,0.098 -1.5085,0.2942 -0.4074,0.1922 -0.732,0.4752 -0.9733,0.8449 -0.2413,0.3693 -0.4188,0.8223 -0.5278,1.3501l-2.3085 10.8627c-0.0452,0.2039 -0.0678,0.4075 -0.0678,0.611 0,0.3584 0.0752,0.6791 0.2262,0.9582 0.1509,0.2829 0.3736,0.5055 0.6713,0.6674 0.2981,0.1662 0.6713,0.2491 1.1165,0.253l11.5419 0 0.8145 -3.8474 -7.9209 0c-0.2713,0 -0.4752,-0.0526 -0.611,-0.1546 -0.1355,-0.1058 -0.2036,-0.2638 -0.2036,-0.479 0,-0.0568 0.0039,-0.1129 0.0152,-0.1736 0.0074,-0.0564 0.0187,-0.1206 0.0304,-0.1884l0.3164 -1.4936 8.6452 0 0.7468 -3.4851 -8.6452 0 0.2491 -1.1769c0.0677,-0.3394 0.1997,-0.5884 0.3958,-0.7542 0.1965,-0.1623 0.4643,-0.2417 0.8036,-0.2417l7.8303 0 0.8146 -3.847zm-33.697 15.8415l10.9534 0c0.7881,0 1.4555,-0.0755 1.9988,-0.2301 0.5468,-0.1548 0.9959,-0.3922 1.3543,-0.7094 0.3542,-0.3203 0.6449,-0.7239 0.8636,-1.2181 0.2187,-0.4939 0.3997,-1.0788 0.5355,-1.7576 0.0378,-0.1848 0.0717,-0.381 0.102,-0.5923 0.0339,-0.211 0.0564,-0.4223 0.0755,-0.6258 0.0187,-0.2039 0.0261,-0.3849 0.0261,-0.5472 0,-0.6071 -0.1016,-1.1313 -0.3129,-1.5653 -0.2113,-0.4335 -0.5281,-0.8032 -0.9582,-1.1013 -0.4261,-0.3016 -0.9694,-0.5507 -1.6256,-0.7507l-4.5938 -1.4256c-0.1055,-0.0339 -0.2226,-0.0642 -0.3546,-0.0981 -0.1323,-0.0338 -0.2603,-0.0755 -0.3849,-0.1245 -0.128,-0.0526 -0.23,-0.1207 -0.309,-0.2074 -0.0832,-0.0868 -0.1245,-0.2001 -0.1284,-0.3394 0.0039,-0.151 0.049,-0.2678 0.1358,-0.3546 0.0907,-0.0829 0.2,-0.1432 0.332,-0.1809 0.1319,-0.0378 0.2639,-0.0607 0.3997,-0.0681 0.1358,-0.0074 0.2564,-0.0113 0.3545,-0.0074l8.0568 0 0.8371 -3.9377 -10.4553 0c-0.7316,0 -1.3578,0.0751 -1.8824,0.23 -0.5239,0.1545 -0.9578,0.3845 -1.3123,0.6904 -0.351,0.309 -0.6375,0.6974 -0.8562,1.1617 -0.2187,0.4635 -0.3923,1.0068 -0.5204,1.6291 -0.0381,0.1774 -0.0719,0.3697 -0.0984,0.5771 -0.0261,0.2113 -0.0452,0.4188 -0.0603,0.6262 -0.0152,0.2036 -0.0226,0.3923 -0.0226,0.562 0,0.5581 0.0755,1.0636 0.23,1.5088 0.1549,0.4488 0.4039,0.8336 0.7394,1.154 0.3355,0.3206 0.7769,0.5736 1.3162,0.7545l5.2956 1.7198c0.1623,0.053 0.3094,0.1059 0.4413,0.1623 0.1323,0.0568 0.2378,0.1245 0.3168,0.2036 0.0833,0.0829 0.1245,0.1848 0.1245,0.3129 -0.0035,0.17 -0.0638,0.302 -0.177,0.3887 -0.1133,0.0907 -0.2491,0.1507 -0.4075,0.181 -0.1545,0.0304 -0.2981,0.0452 -0.4336,0.0416l-8.781 0 -0.8145 3.9378zm-8.7581 -3.9378c-0.4903,0.0036 -0.9052,-0.0568 -1.2407,-0.1774 -0.3359,-0.1207 -0.5884,-0.3129 -0.762,-0.5807 -0.1736,-0.2642 -0.2604,-0.6149 -0.2604,-1.0523 0,-0.1471 0.0113,-0.3055 0.0304,-0.4717 0.0226,-0.1697 0.049,-0.3432 0.0829,-0.5242l1.9463 -9.0974 -5.1146 0 -2.037 9.5049c-0.0299,0.1319 -0.0603,0.2942 -0.0867,0.4829 -0.0265,0.1884 -0.0487,0.3845 -0.0678,0.5881 -0.0151,0.2035 -0.0264,0.3884 -0.0264,0.5584 0.0039,0.8411 0.1697,1.5688 0.4977,2.1876 0.332,0.6149 0.8076,1.1201 1.426,1.5198 0.6184,0.3997 1.3652,0.6978 2.2405,0.8904 0.8713,0.1961 1.8517,0.2903 2.9418,0.2903 0.9959,0.0039 1.9011,-0.049 2.7157,-0.1584 0.8149,-0.1058 1.5465,-0.2981 2.1953,-0.5732 0.6449,-0.2717 1.2181,-0.6566 1.7159,-1.1469 0.4942,-0.4904 0.9204,-1.1162 1.2749,-1.8743 0.3546,-0.762 0.6488,-1.6824 0.8788,-2.7647l2.037 -9.5049 -5.1146 0 -1.9463 9.0974c-0.1432,0.6752 -0.3581,1.2185 -0.6523,1.6334 -0.2907,0.4109 -0.6565,0.7126 -1.1017,0.8974 -0.4449,0.1888 -0.9691,0.2791 -1.5727,0.2755zm-21.0238 -4.2093c0.151,-0.7317 0.3359,-1.3543 0.5546,-1.8556 0.2226,-0.5055 0.4978,-0.913 0.8297,-1.2185 0.332,-0.3055 0.7391,-0.5242 1.222,-0.6639 0.4826,-0.1359 1.0637,-0.2036 1.7389,-0.1997 0.9091,-0.0039 1.603,0.1771 2.0821,0.5468 0.4787,0.3697 0.7204,0.9504 0.7239,1.7388 0,0.1771 -0.0074,0.381 -0.0226,0.6149 -0.0152,0.2336 -0.0413,0.4788 -0.0755,0.7391 -0.03,0.2565 -0.0751,0.5055 -0.1281,0.7507 -0.1545,0.7317 -0.3432,1.3501 -0.5619,1.8556 -0.2226,0.5056 -0.4981,0.9091 -0.8298,1.2182 -0.3284,0.3055 -0.7355,0.5242 -1.2185,0.6639 -0.479,0.1358 -1.0597,0.2039 -1.7349,0.2 -0.9088,0.0039 -1.6069,-0.1735 -2.0934,-0.5355 -0.4865,-0.3662 -0.7317,-0.9391 -0.7355,-1.7275 0,-0.1771 0.0112,-0.381 0.0303,-0.6188 0.0187,-0.2339 0.0452,-0.4826 0.0829,-0.743 0.0377,-0.2564 0.0829,-0.5129 0.1358,-0.7655zm4.8204 -7.8754c-1.0524,-0.0039 -2.0105,0.0261 -2.8667,0.0903 -0.8597,0.0642 -1.6295,0.1887 -2.3082,0.3697 -0.6826,0.181 -1.2862,0.4452 -1.8105,0.792 -0.5281,0.3471 -0.9881,0.8033 -1.3804,1.3656 -0.3923,0.562 -0.7281,1.2559 -1.0072,2.0821 -0.279,0.8294 -0.509,1.8105 -0.6978,2.9492 -0.0677,0.411 -0.1206,0.7733 -0.1619,1.094 -0.0381,0.3168 -0.0681,0.6184 -0.0833,0.9052 -0.0186,0.2868 -0.0261,0.5846 -0.0261,0.8975 -0.0038,1.3465 0.26,2.4327 0.7956,3.2667 0.5358,0.8336 1.3656,1.4407 2.4895,1.8253 1.1278,0.381 2.5725,0.5697 4.3413,0.5658 1.0562,0.0039 2.0105,-0.0264 2.8667,-0.0906 0.86,-0.0639 1.6291,-0.1884 2.3082,-0.3694 0.6826,-0.1813 1.2862,-0.4452 1.8143,-0.792 0.5243,-0.3471 0.9843,-0.8036 1.3766,-1.3656 0.3923,-0.562 0.7277,-1.2598 1.0071,-2.086 0.2791,-0.8258 0.513,-1.8065 0.6978,-2.9453 0.0678,-0.4113 0.1207,-0.7733 0.1546,-1.0866 0.0377,-0.3168 0.0603,-0.6145 0.0755,-0.8978 0.0151,-0.2826 0.019,-0.5768 0.019,-0.8897 0.0035,-1.3543 -0.2568,-2.4483 -0.7885,-3.2854 -0.5319,-0.8336 -1.3578,-1.4446 -2.4821,-1.8295 -1.1201,-0.381 -2.5647,-0.5694 -4.3335,-0.5655zm-10.1837 0.181l-5.1149 0 -1.1991 5.6123 -5.7485 0 1.1995 -5.6123 -5.1146 0 -3.3719 15.8415 5.1146 0 1.3353 -6.2915 5.7481 0 -1.3352 6.2915 5.1145 0 3.3722 -15.8415zm-31.6604 7.6944c0.151,-0.7317 0.3355,-1.3543 0.5546,-1.8556 0.2223,-0.5055 0.4978,-0.913 0.8297,-1.2185 0.332,-0.3055 0.7391,-0.5242 1.2221,-0.6639 0.4826,-0.1359 1.0636,-0.2036 1.7385,-0.1997 0.9091,-0.0039 1.603,0.1771 2.0821,0.5468 0.479,0.3697 0.7207,0.9504 0.7242,1.7388 0,0.1771 -0.0074,0.381 -0.0226,0.6149 -0.0151,0.2336 -0.0416,0.4788 -0.0755,0.7391 -0.03,0.2565 -0.0755,0.5055 -0.128,0.7507 -0.1549,0.7317 -0.3433,1.3501 -0.5624,1.8556 -0.2222,0.5056 -0.4977,0.9091 -0.8297,1.2182 -0.3281,0.3055 -0.7352,0.5242 -1.2181,0.6639 -0.4791,0.1358 -1.0598,0.2039 -1.735,0.2 -0.9091,0.0039 -1.6069,-0.1735 -2.0934,-0.5355 -0.4865,-0.3662 -0.7316,-0.9391 -0.7355,-1.7275 0,-0.1771 0.0113,-0.381 0.0303,-0.6188 0.0187,-0.2339 0.0452,-0.4826 0.0829,-0.743 0.0378,-0.2564 0.0829,-0.5129 0.1358,-0.7655zm4.8204 -7.8754c-1.0523,-0.0039 -2.0105,0.0261 -2.8667,0.0903 -0.86,0.0642 -1.6295,0.1887 -2.3082,0.3697 -0.6826,0.181 -1.2862,0.4452 -1.8105,0.792 -0.5281,0.3471 -0.9881,0.8033 -1.3807,1.3656 -0.392,0.562 -0.7278,1.2559 -1.0069,2.0821 -0.279,0.8294 -0.5094,1.8105 -0.6977,2.9492 -0.0678,0.411 -0.1207,0.7733 -0.1623,1.094 -0.0378,0.3168 -0.0678,0.6184 -0.0829,0.9052 -0.0191,0.2868 -0.0265,0.5846 -0.0265,0.8975 -0.0035,1.3465 0.2604,2.4327 0.7959,3.2667 0.5355,0.8336 1.3652,1.4407 2.4895,1.8253 1.1275,0.381 2.5721,0.5697 4.3413,0.5658 1.0559,0.0039 2.0101,-0.0264 2.8663,-0.0906 0.8601,-0.0639 1.6295,-0.1884 2.3086,-0.3694 0.6826,-0.1813 1.2862,-0.4452 1.814,-0.792 0.5246,-0.3471 0.9846,-0.8036 1.3769,-1.3656 0.3923,-0.562 0.7278,-1.2598 1.0068,-2.086 0.2794,-0.8258 0.5133,-1.8065 0.6978,-2.9453 0.0681,-0.4113 0.121,-0.7733 0.1549,-1.0866 0.0377,-0.3168 0.0603,-0.6145 0.0755,-0.8978 0.0148,-0.2826 0.0187,-0.5768 0.0187,-0.8897 0.0039,-1.3543 -0.2565,-2.4483 -0.7881,-3.2854 -0.532,-0.8336 -1.3579,-1.4446 -2.4822,-1.8295 -1.12,-0.381 -2.5647,-0.5694 -4.3335,-0.5655zm-18.082 16.0225l2.5347 -11.9038 5.6575 0 0.8375 -3.9377 -16.4299 0 -0.8375 3.9377 5.6575 0 -2.5343 11.9038 5.1145 0zm-21.499 -8.1471c0.1507,-0.7317 0.3355,-1.3543 0.5543,-1.8556 0.2226,-0.5055 0.4977,-0.913 0.83,-1.2185 0.3317,-0.3055 0.7391,-0.5242 1.2217,-0.6639 0.483,-0.1359 1.0636,-0.2036 1.7389,-0.1997 0.9091,-0.0039 1.603,0.1771 2.082,0.5468 0.4791,0.3697 0.7204,0.9504 0.7243,1.7388 0,0.1771 -0.0078,0.381 -0.0226,0.6149 -0.0151,0.2336 -0.0416,0.4788 -0.0755,0.7391 -0.03,0.2565 -0.0755,0.5055 -0.1284,0.7507 -0.1545,0.7317 -0.3432,1.3501 -0.562,1.8556 -0.2226,0.5056 -0.4977,0.9091 -0.8297,1.2182 -0.3281,0.3055 -0.7355,0.5242 -1.2181,0.6639 -0.4791,0.1358 -1.0601,0.2039 -1.7353,0.2 -0.9088,0.0039 -1.6066,-0.1735 -2.0931,-0.5355 -0.4865,-0.3662 -0.7316,-0.9391 -0.7355,-1.7275 0,-0.1771 0.0113,-0.381 0.03,-0.6188 0.019,-0.2339 0.0451,-0.4826 0.0832,-0.743 0.0374,-0.2564 0.0829,-0.5129 0.1358,-0.7655zm4.82 -7.8754c-1.0523,-0.0039 -2.0101,0.0261 -2.8663,0.0903 -0.86,0.0642 -1.6295,0.1887 -2.3082,0.3697 -0.683,0.181 -1.2862,0.4452 -1.8105,0.792 -0.5281,0.3471 -0.9884,0.8033 -1.3807,1.3656 -0.3923,0.562 -0.7278,1.2559 -1.0069,2.0821 -0.279,0.8294 -0.5094,1.8105 -0.6978,2.9492 -0.068,0.411 -0.1206,0.7733 -0.1622,1.094 -0.0378,0.3168 -0.0678,0.6184 -0.0829,0.9052 -0.0191,0.2868 -0.0265,0.5846 -0.0265,0.8975 -0.0039,1.3465 0.2604,2.4327 0.7959,3.2667 0.5355,0.8336 1.3652,1.4407 2.4892,1.8253 1.1278,0.381 2.5724,0.5697 4.3416,0.5658 1.0559,0.0039 2.0101,-0.0264 2.8663,-0.0906 0.8601,-0.0639 1.6295,-0.1884 2.3083,-0.3694 0.6829,-0.1813 1.2862,-0.4452 1.8143,-0.792 0.5242,-0.3471 0.9842,-0.8036 1.3765,-1.3656 0.3923,-0.562 0.7282,-1.2598 1.0072,-2.086 0.2791,-0.8258 0.513,-1.8065 0.6978,-2.9453 0.0681,-0.4113 0.1207,-0.7733 0.1545,-1.0866 0.0381,-0.3168 0.0607,-0.6145 0.0755,-0.8978 0.0152,-0.2826 0.0191,-0.5768 0.0191,-0.8897 0.0035,-1.3543 -0.2565,-2.4483 -0.7885,-3.2854 -0.5316,-0.8336 -1.3578,-1.4446 -2.4818,-1.8295 -1.1204,-0.381 -2.5647,-0.5694 -4.3339,-0.5655zm-17.018 6.4269c0.1129,-0.2113 0.2036,-0.3584 0.2791,-0.4449 0.0716,-0.0832 0.128,-0.1245 0.1732,-0.121 0.0455,0.0039 0.0794,0.0265 0.102,0.072 0.0225,0.0452 0.0338,0.0942 0.0338,0.1545 0,0.0452 -0.0035,0.0942 -0.0148,0.1471 -0.0078,0.0529 -0.019,0.102 -0.0303,0.1471l-2.2402 9.6408 5.1594 0 2.8289 -13.2391c0.0226,-0.1132 0.0417,-0.23 0.0529,-0.3471 0.0113,-0.1168 0.0152,-0.23 0.0152,-0.332 0.0035,-0.2448 -0.0416,-0.4939 -0.1397,-0.7391 -0.0942,-0.2451 -0.2716,-0.4716 -0.5242,-0.6787 -0.2565,-0.2039 -0.6149,-0.3697 -1.0827,-0.4942 -0.4674,-0.1246 -1.071,-0.1888 -1.8066,-0.1923 -0.3393,-0.0078 -0.7129,0.0113 -1.1239,0.0564 -0.411,0.0452 -0.8372,0.1471 -1.2711,0.3129 -0.4374,0.1662 -0.86,0.4262 -1.2671,0.7846 -0.4114,0.3584 -0.7811,0.8488 -1.1131,1.4711l-4.0054 7.6944c-0.0377,0.0794 -0.0907,0.1775 -0.1584,0.2865 -0.0677,0.1132 -0.1432,0.2113 -0.2265,0.2981 -0.0829,0.0907 -0.1658,0.1358 -0.2487,0.1397 -0.0829,-0.0039 -0.1436,-0.0452 -0.1887,-0.1284 -0.0413,-0.079 -0.0716,-0.1771 -0.0907,-0.2868 -0.0187,-0.1129 -0.03,-0.2149 -0.0374,-0.3091l-0.8375 -7.6944c-0.0755,-0.6188 -0.2374,-1.1049 -0.4939,-1.4598 -0.2529,-0.3584 -0.5623,-0.6184 -0.9204,-0.7881 -0.3584,-0.1661 -0.7355,-0.2716 -1.1239,-0.3168 -0.3923,-0.0455 -0.7585,-0.0681 -1.1053,-0.0603 -0.1697,-0.0039 -0.4035,0.0035 -0.7052,0.0226 -0.2981,0.0187 -0.63,0.0716 -0.992,0.1545 -0.3584,0.0868 -0.7168,0.2261 -1.0714,0.4226 -0.3506,0.1958 -0.6635,0.4713 -0.9352,0.8259 -0.2755,0.3506 -0.4713,0.8032 -0.5958,1.3578l-2.8289 13.2391 5.1597 0 1.9007 -9.6408c0.0078,-0.0564 0.023,-0.1245 0.0456,-0.2074 0.0264,-0.079 0.0603,-0.151 0.1054,-0.2152 0.0417,-0.0603 0.0981,-0.0942 0.1662,-0.0981 0.0564,0.0039 0.0942,0.0642 0.1129,0.1736 0.0229,0.1094 0.0377,0.2413 0.0455,0.3923l0.8371 7.6493c0.0226,0.2903 0.0716,0.562 0.1397,0.8184 0.0678,0.2565 0.1923,0.483 0.3659,0.6788 0.1696,0.1961 0.4261,0.3471 0.762,0.4603 0.3355,0.1094 0.7807,0.1658 1.3352,0.1697 0.5542,-0.0039 1.0259,-0.0603 1.4069,-0.1697 0.381,-0.1132 0.7013,-0.2642 0.9578,-0.4603 0.2565,-0.1958 0.4752,-0.4223 0.6526,-0.6788 0.1771,-0.2564 0.3433,-0.5281 0.4904,-0.8184l4.0509 -7.6493z"></path> <polygon id="_243595944" class="fil0" points="43.347,36.3274 212.019,31.1422 212.434,20.5652 201.442,9.7805 192.688,9.4736 194.796,3.2361 203.931,3.1437 219.278,18.4909 218.863,36.7422 "></polygon> <path id="_243595800" class="fil2" d="M36.2733 35.3344c-0.0966,0.001 -0.1714,-0.017 -0.2236,-0.054 -0.0512,-0.036 -0.078,-0.0949 -0.078,-0.1736 0,-0.0152 0.0011,-0.036 0.0039,-0.0614 0.0028,-0.0268 0.0078,-0.0515 0.0134,-0.0751 0.0152,-0.0769 0.0406,-0.1344 0.0776,-0.1743 0.036,-0.0398 0.0826,-0.0663 0.1383,-0.0797 0.0571,-0.0131 0.1235,-0.0201 0.1993,-0.0191l0.2276 0c0.0945,0 0.1665,0.0173 0.218,0.0533 0.0511,0.036 0.0776,0.0917 0.0776,0.1686 0,0.0152 -0.0011,0.0371 -0.0039,0.0646 -0.0028,0.0275 -0.0074,0.054 -0.013,0.0776 -0.0152,0.0752 -0.041,0.1327 -0.077,0.1718 -0.037,0.0395 -0.0832,0.067 -0.1393,0.0815 -0.0568,0.0141 -0.1231,0.0208 -0.199,0.0198l-0.2219 0zm0.3412 -1.5018c-0.0872,-0.0007 -0.1489,-0.0177 -0.1859,-0.0508 -0.0357,-0.0332 -0.054,-0.0787 -0.053,-0.1369 0,-0.018 0.0018,-0.0384 0.005,-0.0635 0.0028,-0.0236 0.0063,-0.0462 0.0123,-0.067 0.0103,-0.0568 0.0293,-0.1062 0.0547,-0.1471 0.0258,-0.0406 0.0617,-0.072 0.109,-0.0928 0.0466,-0.0219 0.1083,-0.0332 0.1831,-0.0332l0.182 0c0.0872,0.0011 0.1479,0.0191 0.1828,0.054 0.0353,0.0349 0.0522,0.0815 0.0504,0.1394 0,0.0179 -0.001,0.0381 -0.0039,0.0606 -0.0017,0.0226 -0.0045,0.0438 -0.0074,0.0646 -0.0123,0.0568 -0.0314,0.1062 -0.0571,0.1467 -0.0254,0.041 -0.0614,0.0713 -0.108,0.0932 -0.0465,0.0218 -0.1072,0.0328 -0.182,0.0328l-0.182 0zm0.1252 -1.5357c-0.182,-0.0007 -0.3489,0.0011 -0.5006,0.0078 -0.1527,0.0067 -0.29,0.0247 -0.4124,0.0529 -0.1231,0.0297 -0.2321,0.078 -0.327,0.1461 -0.0949,0.0674 -0.1764,0.1612 -0.2445,0.2825 -0.0681,0.1214 -0.1231,0.277 -0.1651,0.4664 -0.0113,0.0512 -0.0197,0.1016 -0.0254,0.1507 -0.0056,0.0486 -0.0084,0.0931 -0.0084,0.1337 0.0007,0.1185 0.0208,0.2264 0.0596,0.3252 0.0398,0.0984 0.0938,0.1799 0.163,0.2445 0.0684,0.0646 0.1478,0.1062 0.2381,0.1242l-0.006 0.0229c-0.1411,0.0215 -0.2597,0.0512 -0.3542,0.0882 -0.096,0.037 -0.1736,0.0861 -0.2353,0.1478 -0.0607,0.0617 -0.1108,0.1411 -0.1499,0.2371 -0.0395,0.0966 -0.0727,0.2159 -0.1023,0.3573 -0.0113,0.054 -0.0198,0.1059 -0.0254,0.1574 -0.0057,0.0501 -0.0085,0.0984 -0.0085,0.1439 0.0007,0.1669 0.0332,0.308 0.0956,0.423 0.0624,0.1146 0.1496,0.2067 0.2618,0.2748 0.1125,0.0692 0.2434,0.1196 0.3933,0.1499 0.1506,0.0311 0.3126,0.0463 0.489,0.0455l0.7281 0c0.1831,0.0008 0.3499,-0.0038 0.4995,-0.0134 0.151,-0.0095 0.2854,-0.0314 0.405,-0.0656 0.1192,-0.0331 0.2244,-0.085 0.3154,-0.1545 0.0903,-0.0698 0.1669,-0.1647 0.2314,-0.2833 0.0635,-0.1196 0.114,-0.2691 0.1528,-0.4501 0.0113,-0.06 0.0208,-0.1178 0.0285,-0.1746 0.0074,-0.0558 0.011,-0.1098 0.011,-0.1613 0,-0.1315 -0.0198,-0.2473 -0.0596,-0.3489 -0.0399,-0.1012 -0.0995,-0.1838 -0.1782,-0.248 -0.0776,-0.0635 -0.1753,-0.1054 -0.291,-0.1252l0.0056 -0.0229c0.1235,-0.0198 0.2265,-0.0462 0.3112,-0.0805 0.0843,-0.0342 0.1534,-0.0797 0.2084,-0.1347 0.054,-0.0551 0.0985,-0.1221 0.1338,-0.2036 0.0338,-0.0818 0.0624,-0.1792 0.086,-0.2921 0.0145,-0.0702 0.023,-0.1319 0.0275,-0.1866 0.005,-0.055 0.0067,-0.1111 0.0067,-0.1662 -0.001,-0.2187 -0.0511,-0.3912 -0.1516,-0.5185 -0.1006,-0.1277 -0.2466,-0.2188 -0.4378,-0.2731 -0.1927,-0.054 -0.4258,-0.0804 -0.7017,-0.0787l-0.4664 0zm-3.4526 1.5643l-0.5916 0c-0.0967,-0.0007 -0.1687,-0.0209 -0.217,-0.0607 -0.0483,-0.0399 -0.073,-0.0946 -0.073,-0.1669 0,-0.0123 0.001,-0.0293 0.0039,-0.0522 0.0028,-0.0226 0.0074,-0.0462 0.0134,-0.0727 0.0113,-0.0684 0.0349,-0.1213 0.0691,-0.1605 0.0349,-0.0395 0.0804,-0.067 0.1365,-0.0832 0.0558,-0.0163 0.1221,-0.0247 0.1979,-0.0237l0.296 0c0.0872,-0.001 0.1507,0.0141 0.1888,0.0445 0.0377,0.0303 0.0568,0.0779 0.0557,0.1432 0,0.0198 -0.0011,0.0399 -0.0039,0.0607 -0.0028,0.0219 -0.0074,0.0444 -0.013,0.0702l-0.0628 0.3013zm-0.1877 0.8759l-0.0737 0.3359c-0.0152,0.0747 -0.0427,0.1305 -0.0815,0.1686 -0.0392,0.0377 -0.0882,0.0635 -0.1482,0.0758 -0.0586,0.0124 -0.127,0.018 -0.2028,0.017l-1.6666 0 -0.2046 0.9443 2.3432 0c0.2459,0 0.4494,-0.0409 0.6117,-0.1213 0.1619,-0.0808 0.2917,-0.1983 0.3884,-0.3546 0.0967,-0.1566 0.1697,-0.3488 0.2173,-0.5764l0.3923 -1.8602c0.0116,-0.0508 0.0201,-0.1023 0.0258,-0.1524 0.0056,-0.0511 0.0084,-0.1005 0.0084,-0.1489 0.0011,-0.1478 -0.0264,-0.2787 -0.0825,-0.3933 -0.0558,-0.1157 -0.1422,-0.2067 -0.2597,-0.2731 -0.1174,-0.0663 -0.2684,-0.1005 -0.454,-0.1016l-1.4961 0c-0.1979,0 -0.3659,0.0184 -0.5041,0.0544 -0.1383,0.036 -0.254,0.0878 -0.3451,0.1573 -0.092,0.0681 -0.1668,0.1517 -0.2247,0.2494 -0.0578,0.0974 -0.1051,0.2085 -0.1422,0.3327 -0.0359,0.1242 -0.0691,0.2596 -0.0977,0.4067 -0.0141,0.0699 -0.0226,0.1334 -0.0275,0.1895 -0.0046,0.0568 -0.0067,0.1129 -0.0067,0.1686 0,0.1849 0.0332,0.3422 0.1016,0.4741 0.0674,0.1309 0.1686,0.2311 0.3041,0.3013 0.1358,0.0702 0.3055,0.1055 0.5101,0.1062l1.1148 0zm-3.6911 -0.8759l-0.5916 0c-0.0967,-0.0007 -0.169,-0.0209 -0.2173,-0.0607 -0.0484,-0.0399 -0.0731,-0.0946 -0.0731,-0.1669 0,-0.0123 0.0011,-0.0293 0.0039,-0.0522 0.0028,-0.0226 0.0078,-0.0462 0.0134,-0.0727 0.0113,-0.0684 0.0349,-0.1213 0.0692,-0.1605 0.0349,-0.0395 0.0804,-0.067 0.1365,-0.0832 0.0557,-0.0163 0.1224,-0.0247 0.1979,-0.0237l0.296 0c0.0871,-0.001 0.1506,0.0141 0.1887,0.0445 0.0378,0.0303 0.0568,0.0779 0.0558,0.1432 0,0.0198 -0.0011,0.0399 -0.0036,0.0607 -0.0031,0.0219 -0.0077,0.0444 -0.0134,0.0702l-0.0624 0.3013zm-0.1877 0.8759l-0.0741 0.3359c-0.0151,0.0747 -0.0427,0.1305 -0.0815,0.1686 -0.0391,0.0377 -0.0882,0.0635 -0.1481,0.0758 -0.0586,0.0124 -0.127,0.018 -0.2029,0.017l-1.6665 0 -0.2046 0.9443 2.3435 0c0.2455,0 0.4491,-0.0409 0.6113,-0.1213 0.1623,-0.0808 0.2918,-0.1983 0.3885,-0.3546 0.097,-0.1566 0.17,-0.3488 0.2173,-0.5764l0.3923 -1.8602c0.0116,-0.0508 0.0201,-0.1023 0.0257,-0.1524 0.0057,-0.0511 0.0085,-0.1005 0.0085,-0.1489 0.001,-0.1478 -0.0265,-0.2787 -0.0826,-0.3933 -0.0557,-0.1157 -0.1421,-0.2067 -0.2596,-0.2731 -0.1175,-0.0663 -0.2681,-0.1005 -0.454,-0.1016l-1.4958 0c-0.1983,0 -0.3662,0.0184 -0.5045,0.0544 -0.1383,0.036 -0.254,0.0878 -0.345,0.1573 -0.0921,0.0681 -0.1669,0.1517 -0.2247,0.2494 -0.0579,0.0974 -0.1052,0.2085 -0.1422,0.3327 -0.036,0.1242 -0.0691,0.2596 -0.0977,0.4067 -0.0141,0.0699 -0.0226,0.1334 -0.0275,0.1895 -0.0046,0.0568 -0.0067,0.1129 -0.0067,0.1686 0,0.1849 0.0335,0.3422 0.1016,0.4741 0.0673,0.1309 0.1689,0.2311 0.3041,0.3013 0.1358,0.0702 0.3055,0.1055 0.5101,0.1062l1.1151 0zm-4.3229 1.5416l1.2855 0 0.7108 -3.3334c0.0057,-0.0254 0.0106,-0.05 0.0134,-0.0737 0.0029,-0.0236 0.0039,-0.0483 0.0039,-0.0741 0,-0.0938 -0.0201,-0.1781 -0.0589,-0.254 -0.0388,-0.0748 -0.0956,-0.1344 -0.1725,-0.1792 -0.0769,-0.0434 -0.1725,-0.0663 -0.2865,-0.0674l-1.3705 0 -0.2106 0.9899 0.4837 0c0.0747,0.0011 0.127,0.017 0.1545,0.0494 0.0275,0.0311 0.0405,0.072 0.0388,0.1214 0,0.0226 -0.0011,0.0455 -0.0039,0.0691 -0.0028,0.0226 -0.0074,0.0473 -0.0134,0.0731 0,0.0028 -0.0007,0.0056 -0.0028,0.0084 -0.0018,0.0028 -0.0029,0.0057 -0.0029,0.0085l-0.5686 2.662zm-2.1728 0l0.2159 -1.0241 -1.1261 0 -0.2162 1.0241 1.1264 0zm-1.7064 0l0.1704 -0.7965 -0.176 0c-0.1337,-0.0007 -0.242,-0.018 -0.3242,-0.0512 -0.0819,-0.0342 -0.1415,-0.0815 -0.1785,-0.1421 -0.0367,-0.0597 -0.0558,-0.1299 -0.0547,-0.2103 0,-0.0275 0.0007,-0.0607 0.0035,-0.1005 0.0028,-0.041 0.0067,-0.0815 0.0113,-0.1232 0.0049,-0.0419 0.0116,-0.079 0.0191,-0.1121l0.1421 -0.6823 0.859 0 0.1708 -0.7966 -0.859 0 0.2046 -0.967 -1.1148 0 -0.2046 0.967 -0.4265 0 -0.1708 0.7966 0.4265 0 -0.2501 1.1941c-0.0084,0.0353 -0.0144,0.0741 -0.018,0.1175 -0.0028,0.043 -0.0049,0.0836 -0.0049,0.1217 0.0011,0.1334 0.0268,0.2491 0.0769,0.3479 0.0494,0.0984 0.1175,0.1799 0.2046,0.2444 0.0875,0.0653 0.187,0.1129 0.2999,0.145 0.1118,0.0314 0.231,0.0476 0.3573,0.0476l0.8361 0zm-5.4264 0l2.099 0c0.1884,0.0008 0.3479,-0.0211 0.4766,-0.0656 0.1291,-0.0444 0.2332,-0.1213 0.3129,-0.2293 0.0798,-0.1083 0.1383,-0.2561 0.1775,-0.4445 0.0085,-0.0427 0.0148,-0.0836 0.0208,-0.1234 0.0046,-0.0399 0.0074,-0.0787 0.0074,-0.1158 0,-0.1118 -0.0169,-0.2074 -0.0501,-0.2889 -0.0331,-0.0815 -0.0818,-0.1517 -0.1443,-0.2113 -0.0635,-0.06 -0.1393,-0.1129 -0.2275,-0.1602 -0.0889,-0.0476 -0.1895,-0.092 -0.3002,-0.1358l-0.6544 -0.2557c-0.0568,-0.0219 -0.1041,-0.0388 -0.1422,-0.0512 -0.0377,-0.0123 -0.0663,-0.0257 -0.085,-0.0399 -0.0191,-0.0144 -0.0286,-0.0352 -0.0286,-0.0628 0.0018,-0.0187 0.0152,-0.0321 0.0399,-0.0398 0.0254,-0.0085 0.0529,-0.0131 0.0832,-0.0152 0.0304,-0.0018 0.0533,-0.0025 0.0702,-0.0018l1.6383 0 0.1648 -0.7736 -2.0592 0c-0.1884,-0.0007 -0.3478,0.0229 -0.4787,0.073 -0.1298,0.0494 -0.235,0.1299 -0.3147,0.2427 -0.0804,0.1129 -0.14,0.2636 -0.1792,0.4523 -0.0085,0.0427 -0.0148,0.0833 -0.0208,0.1231 -0.0046,0.0399 -0.0074,0.0787 -0.0074,0.1157 0,0.132 0.0247,0.2417 0.073,0.3299 0.0473,0.0892 0.1185,0.164 0.2113,0.2258 0.0928,0.0613 0.2067,0.1164 0.3415,0.1668l0.5514 0.2103c0.0325,0.0116 0.0684,0.0236 0.1072,0.037 0.0388,0.0134 0.0769,0.0275 0.1136,0.0438 0.0364,0.0158 0.0664,0.0331 0.0893,0.0529 0.0236,0.0201 0.036,0.0416 0.037,0.0656 -0.001,0.0187 -0.0067,0.0332 -0.019,0.0423 -0.0124,0.0106 -0.0265,0.0173 -0.0434,0.0212 -0.0162,0.0028 -0.0314,0.0046 -0.0455,0.0046l-1.644 0 -0.1707 0.8078zm-2.0133 -1.8542c0.0197,-0.0931 0.0462,-0.1679 0.0787,-0.2247 0.0331,-0.0561 0.0737,-0.0988 0.122,-0.127 0.0476,-0.0285 0.1044,-0.0476 0.1708,-0.0561 0.0652,-0.0095 0.1404,-0.0141 0.2254,-0.0134 0.0409,-0.0007 0.0875,0.0011 0.1386,0.0057 0.0512,0.0039 0.1006,0.0123 0.1489,0.0247 0.0483,0.0134 0.0882,0.0324 0.1192,0.0589 0.0314,0.0254 0.0477,0.0607 0.0484,0.1044 0,0.0064 0,0.0198 -0.0007,0.0378 0,0.019 -0.0021,0.0342 -0.005,0.0472 -0.0046,0.023 -0.013,0.0455 -0.0247,0.0674 -0.0113,0.0219 -0.0321,0.0388 -0.0624,0.0533 -0.0303,0.0141 -0.0748,0.0208 -0.1348,0.0218l-0.8244 0zm1.621 1.8542l0.1648 -0.7736 -1.4616 0c-0.1669,0.0018 -0.291,-0.0173 -0.3708,-0.055 -0.0797,-0.0388 -0.1196,-0.1062 -0.1185,-0.2011 0,-0.0339 0.0056,-0.0737 0.0169,-0.1193l1.644 0c0.1319,-0.001 0.2388,-0.0246 0.3213,-0.0723 0.0833,-0.0462 0.1489,-0.1125 0.1973,-0.1979 0.0483,-0.0843 0.0853,-0.1838 0.1128,-0.2988 0.0131,-0.054 0.0237,-0.109 0.0321,-0.1676 0.0085,-0.0578 0.0152,-0.1157 0.0191,-0.1725 0.0035,-0.0568 0.0056,-0.1111 0.0056,-0.1601 0,-0.1708 -0.0303,-0.3112 -0.0899,-0.4202 -0.06,-0.109 -0.15,-0.1933 -0.2695,-0.2529 -0.1182,-0.06 -0.2671,-0.1016 -0.4445,-0.1242 -0.1771,-0.024 -0.3828,-0.0342 -0.6181,-0.0335 -0.2607,-0.0018 -0.4872,0.006 -0.6788,0.0219 -0.1922,0.0172 -0.3573,0.0504 -0.4956,0.1016 -0.1376,0.0511 -0.2551,0.128 -0.3517,0.2303 -0.0977,0.1034 -0.181,0.2406 -0.2512,0.4124 -0.0702,0.1715 -0.1337,0.3867 -0.1905,0.6445 -0.0229,0.1013 -0.0399,0.1927 -0.0522,0.2742 -0.0124,0.0814 -0.0208,0.1573 -0.0268,0.2275 -0.0046,0.0698 -0.0064,0.14 -0.0064,0.2095 0,0.2152 0.0378,0.3913 0.1136,0.5289 0.0769,0.1365 0.1933,0.237 0.351,0.3012 0.1574,0.0656 0.3563,0.0978 0.599,0.097l1.8486 0z"></path> </g> </g> </svg>